<svg width="190" height="130" viewBox="0 0 190 130" fill="none" xmlns="http://www.w3.org/2000/svg">
<path d="M34.3908 1.39999C28.0908 3.6 16.9908 10.7 12.1908 15.5C8.19082 19.6 7.19082 21.5 3.59082 32.7C-0.909185 46.4 -0.909185 47.2 2.09082 66.1C3.19082 73.3 3.59082 74.1 9.59082 81.3C15.0908 87.9 16.8908 89.3 22.2908 91.5C28.8908 94.1 35.5908 94.7 39.9908 93C41.3908 92.5 43.8908 90.2 45.5908 87.9C52.2908 78.6 47.7908 63 37.2908 59.1C30.8908 56.6 29.9908 58.2 34.6908 64.1C36.4908 66.3 37.9908 69.7 38.2908 71.9C38.6908 75.1 38.3908 76 36.4908 77.4C32.5908 80.1 29.5908 79.4 24.9908 74.5C20.0908 69.4 18.5908 65.2 18.5908 55.9C18.5908 48.6 21.7908 40.9 27.4908 33.9C32.3908 28 36.1908 26.7 44.2908 28.1C50.4908 29.2 51.5908 29.8 56.7908 34.8C59.9908 37.8 62.5908 40.9 62.5908 41.7C62.5908 42.4 62.4908 43 62.3908 43C62.1908 43 59.1908 42.1 55.7908 41C46.2908 38 36.5908 38.5 36.5908 41.9C36.5908 47.4 47.3908 55.7 56.7908 57.4C59.8908 58 60.6908 58.6 61.1908 60.8C61.4908 62.3 61.9908 64.1 62.1908 64.9C62.4908 65.7 63.2908 71.2 64.1908 77.3C65.3908 85.9 66.4908 89.8 69.2908 95.3C71.1908 99.2 74.2908 106.3 76.0908 111.1C77.9908 115.9 80.1908 121.2 80.9908 122.8C82.7908 126.2 89.6908 130 94.2908 130C103.791 130 108.091 126.6 112.191 115.8C113.691 111.8 116.791 104.6 119.191 99.9C124.191 89.9 125.991 83.7 127.591 71.8C128.991 61.6 130.791 58.6 136.291 57.5C143.791 56.1 150.991 50.9 154.291 44.6C156.291 40.7 154.991 40 145.791 40C140.391 40 137.491 40.5 134.391 42.1C128.891 44.9 127.391 43.4 130.791 38.3C139.991 24.4 160.291 24.7 167.591 38.9C168.591 41 169.991 46.3 170.591 50.9C171.491 57.9 171.491 59.9 170.091 64.8C167.691 72.8 165.991 75.7 162.591 77.5C159.091 79.3 154.491 79.5 152.791 77.8C149.891 74.9 151.991 66.7 156.991 62.1C158.391 60.7 159.591 59.3 159.591 58.8C159.591 56.9 153.091 58.1 149.691 60.7C144.891 64.3 143.991 65.6 141.991 71.4C140.591 75.5 140.491 77.1 141.491 81.5C143.291 89.7 148.891 94 157.591 94C161.591 94 163.991 93.3 168.891 90.4C177.691 85.2 182.691 79.1 186.591 68.4C189.391 60.6 189.791 58.3 189.691 50.2C189.591 40.5 187.391 28.6 184.791 23.5C183.991 21.8 180.991 17.7 178.191 14.3C174.191 9.5 171.691 7.5 166.591 5.2C155.291 0 152.491 -0.5 143.791 0.899994C130.991 2.8 120.191 8.9 109.391 20.1L104.791 25H95.4908H86.1908L81.0908 19.7C75.2908 13.5 68.3908 7.9 63.9908 5.7C61.0908 4.2 42.4908 -0.100006 39.3908 0C38.6908 0.0999908 36.3908 0.699997 34.3908 1.39999ZM92.7908 108.3C94.9908 109.2 96.2908 109.1 99.0908 107.7C103.491 105.6 104.591 105.6 104.591 107.6C104.591 109.5 96.6908 119 95.1908 119C93.1908 119 85.3908 109 85.9908 107.4C86.3908 106.3 87.1908 106 88.3908 106.5C89.2908 106.9 91.2908 107.7 92.7908 108.3Z" fill="#151515"/>
</svg>
